<?xml version="1.0" encoding="utf-8"?>
<!-- Generator: Adobe Illustrator 27.0.1, SVG Export Plug-In . SVG Version: 6.00 Build 0)  -->
<svg version="1.1" id="Layer_1" xmlns="http://www.w3.org/2000/svg" xmlns:xlink="http://www.w3.org/1999/xlink" x="0px" y="0px"
	 viewBox="0 0 512 100" style="enable-background:new 0 0 512 100;" xml:space="preserve">
<style type="text/css">
	.st0{display:none;}
	.st1{display:inline;}
	.st2{fill-rule:evenodd;clip-rule:evenodd;fill:#010101;}
	.st3{fill-rule:evenodd;clip-rule:evenodd;fill:#EF4E30;}
	.st4{fill-rule:evenodd;clip-rule:evenodd;fill:#2B80B3;}
	.st5{fill-rule:evenodd;clip-rule:evenodd;fill:url(#SVGID_1_);}
	.st6{fill-rule:evenodd;clip-rule:evenodd;fill:#D2DE4C;}
	.st7{fill-rule:evenodd;clip-rule:evenodd;fill:#98C93D;}
	.st8{fill-rule:evenodd;clip-rule:evenodd;fill:url(#SVGID_00000150782807064210478180000012618136575397750204_);}
	.st9{fill-rule:evenodd;clip-rule:evenodd;fill:#FFFFFF;}
	.st10{fill-rule:evenodd;clip-rule:evenodd;fill:url(#SVGID_00000084489193314097030770000007068499017600692130_);}
	.st11{fill-rule:evenodd;clip-rule:evenodd;fill:url(#SVGID_00000088821476778520880520000009106600372490249105_);}
</style>
<g class="st0">
	<g class="st1">
		<path class="st2" d="M82.44,33.95c-0.01,0-4.61,0-4.62,0c-3.77,0-3.95,0.2-4.69,3.29c0,0.01-7.74,35.87-8.38,38.8
			c-0.71-2.9-9.45-38.71-9.45-38.72c-0.81-3.15-1.02-3.38-4.82-3.38c-0.01,0-7.83,0-7.84,0c-3.8,0-3.95,0.28-4.85,3.35
			c0,0.01-9.29,35.28-10.02,38.08c-0.6-2.83-8.11-38.08-8.11-38.08c-0.74-3.09-0.91-3.35-4.68-3.35c-0.01,0-4.94,0-4.94,0
			c-3.77,0-4.85,0.2-4,4c0,0.01,13.01,56.13,13.01,56.14c0.78,3.07,0.99,3.33,4.76,3.33c0,0,6.43,0,6.43,0c3.92,0,4.07-0.29,5-3.56
			c0-0.01,10.32-39.22,11.01-41.83c0.68,2.66,10.88,42.34,10.88,42.35c0.84,2.74,1.01,3.04,4.78,3.04c0,0,6.31,0,6.32,0
			c3.89,0,4.06-0.35,4.91-3.67c0-0.01,13.49-56.57,13.49-56.58C87.26,34.2,86.15,33.95,82.44,33.95L82.44,33.95z"/>
		<path class="st2" d="M135.63,33.95c-0.01,0-4.56,0-4.56,0c-3.77,0-3.95,0.17-3.95,4c0,0.01,0,34.32,0,36.74
			c-1.33-2.18-23.13-37.91-23.13-37.92c-1.66-2.63-2.04-2.82-5.79-2.82c-0.01,0-4.82,0-4.83,0c-3.74,0-4.01,0.23-4.01,4
			c0,0,0,55.42,0,55.44c0,3.82,0.23,4.03,3.98,4.03c0.01,0,4.53,0,4.53,0c3.89,0,4.03-0.26,4.03-4.04c0,0,0-33.47,0-35.86
			c1.33,2.16,22.79,37.16,22.8,37.17c1.74,2.7,1.94,2.73,5.69,2.73c0,0,5.22,0,5.23,0c3.83,0,4.03-0.17,4.03-4.07
			c0-0.01,0-55.39,0-55.4C139.66,34.11,139.46,33.95,135.63,33.95L135.63,33.95z"/>
		<path class="st2" d="M190.79,68.64c-1.68-2.76-4.04-4.96-7.01-6.54c-2.93-1.57-7.51-3.1-13.6-4.56
			c-5.98-1.43-9.78-2.81-11.29-4.09c-1.14-0.97-1.69-2.1-1.69-3.45c0-1.48,0.59-2.63,1.79-3.51c1.97-1.44,4.74-2.18,8.26-2.18
			c3.39,0,5.96,0.68,7.63,2.01c1.09,0.87,1.93,2.13,2.53,3.76c0.98,2.78,0.98,3.28,4.78,3.14c0.01,0,5.38-0.2,5.41-0.2
			c3.74-0.16,4.27-0.63,3.65-4.03c-0.79-4.33-2.79-7.94-5.99-10.76c-4-3.52-10.01-5.3-17.87-5.3c-4.8,0-8.97,0.75-12.38,2.22
			c-3.44,1.48-6.11,3.67-7.94,6.51c-1.83,2.84-2.76,5.93-2.76,9.2c0,5.07,1.97,9.42,5.85,12.94c2.74,2.49,7.55,4.61,14.28,6.3
			c5.17,1.3,8.52,2.22,9.96,2.73c2.05,0.73,3.49,1.6,4.29,2.56c0.8,0.96,1.18,2.1,1.18,3.47c0,2.17-0.95,4.03-2.9,5.67
			c-1.94,1.64-4.9,2.47-8.8,2.47c-3.67,0-6.61-0.94-8.76-2.78c-1.57-1.36-2.77-3.31-3.58-5.83c-0.82-2.98-0.97-3.36-4.77-3
			c-0.03,0-5.14,0.49-5.14,0.49c-3.75,0.33-4.16,0.65-3.49,3.66c0,0.01,1.96,8.79,7.25,13.56c4.21,3.8,10.44,5.63,18.36,5.63
			c5.42,0,10.02-0.78,13.67-2.33c3.68-1.56,6.57-3.97,8.58-7.18c2.01-3.2,3.03-6.68,3.03-10.35
			C193.33,74.84,192.47,71.39,190.79,68.64L190.79,68.64z"/>
		<polygon class="st3" points="106.62,97.42 106.62,75.59 120.43,97.42 106.62,97.42 		"/>
	</g>
	<g class="st1">
		<g>
			<path class="st4" d="M465.52,41.24c0.1-0.21,0.15-0.33,0.22-0.43c2.34-3.41,5.7-5.3,9.58-6.41c2.83-0.81,5.73-1.11,8.65-0.93
				c5.64,0.34,10.87,1.92,15.34,5.5c3.73,2.99,6.04,6.84,6.7,11.61c0.14,0.99,0.23,2,0.23,3c0.01,14.7,0.01,29.41,0.01,44.11
				c0,0.92,0,0.92-0.9,0.92c-4.05,0-8.1,0-12.15,0c-0.89,0-0.89,0-0.89-0.92c-0.01-5.16,0-10.32-0.02-15.48
				c-0.03-8.45-0.02-16.9-0.12-25.35c-0.05-4.65-2.92-8.78-8.12-9.52c-5.24-0.75-10.27,2.38-11.34,8.11
				c-0.09,0.5-0.13,1.02-0.13,1.53c-0.01,13.57-0.01,27.14-0.01,40.72c0,0.92,0,0.92-0.9,0.92c-4.13,0-8.27,0-12.4,0
				c-0.89,0-0.89,0-0.89-0.92c0-13.53,0-27.06,0-40.59c0-4.8-3.48-8.89-8.2-9.7c-5.76-0.98-10.59,2.61-11.31,8.18
				c-0.04,0.3-0.1,0.61-0.1,0.92c-0.04,6.39-0.09,12.78-0.11,19.18c-0.02,7.38-0.02,14.76-0.01,22.15c0,0.61-0.15,0.81-0.79,0.81
				c-4.13-0.03-8.27-0.03-12.4,0c-0.64,0.01-0.79-0.2-0.78-0.81c0.02-15.09-0.05-30.19,0.05-45.28c0.03-5.04,2.15-9.32,5.9-12.72
				c3.74-3.39,8.21-5.26,13.16-5.97c1.98-0.28,4.01-0.44,6.01-0.35c4.49,0.19,8.74,1.29,12.35,4.13c1.07,0.84,1.92,1.96,2.87,2.95
				C465.14,40.7,465.25,40.88,465.52,41.24z"/>
			<path class="st4" d="M401.25,93.31c-0.19,0.27-0.34,0.56-0.56,0.79c-2.47,2.54-5.43,4.22-8.97,4.63
				c-4.31,0.51-8.47-0.22-12.4-2.11c-5.21-2.5-8.88-6.56-11.49-11.63c-1.91-3.7-3.12-7.64-3.6-11.77c-0.28-2.4-0.54-4.83-0.47-7.24
				c0.26-8.94,2.73-17.16,8.6-24.11c3.78-4.48,8.48-7.48,14.34-8.47c2.42-0.41,4.86-0.32,7.3-0.06c2.69,0.3,5.29,0.92,7.76,2.05
				c4.89,2.24,8.29,5.96,10.56,10.77c1.47,3.11,2.34,6.39,2.87,9.77c0.5,3.21,0.65,6.45,0.6,9.69c-0.04,2.36-0.1,4.72-0.1,7.08
				c0,2.48,0.1,4.97,0.09,7.46c-0.02,5.98-0.08,11.96-0.1,17.94c0,0.52-0.18,0.66-0.68,0.66c-4.26-0.02-8.51-0.02-12.77,0
				c-0.53,0-0.67-0.18-0.66-0.68c0.03-1.29,0.02-2.59,0.02-3.89c0-0.24-0.03-0.47-0.05-0.71C401.45,93.44,401.35,93.38,401.25,93.31
				z M402.04,67.63c-0.06-1.23-0.05-2.47-0.19-3.69c-0.29-2.46-0.54-4.93-1.02-7.35c-0.5-2.53-1.47-4.91-3.11-6.97
				c-2.4-3.03-6.44-4-9.4-3.14c-2.23,0.65-3.82,2.22-5.1,4.08c-2.97,4.29-4.12,9.16-4.41,14.28c-0.14,2.54,0.01,5.09,0.48,7.6
				c0.59,3.14,1.59,6.12,3.38,8.79c1.14,1.7,2.52,3.17,4.44,3.98c2.74,1.16,5.41,0.69,7.94-0.65c2.78-1.47,4.4-3.94,5.45-6.82
				C401.69,74.48,402.07,71.09,402.04,67.63z"/>
			<path class="st4" d="M274.28,54.61c0-6.95,0-13.9,0-20.85c0-0.81,0-0.81,0.82-0.81c4.52,0,9.05,0.01,13.57-0.01
				c0.62,0,0.8,0.17,0.8,0.8c-0.02,13.53,0.03,27.06-0.04,40.59c-0.02,4.13,2.48,8.36,7.38,9.81c4.67,1.38,11.12-1.74,12.12-7.82
				c0.09-0.54,0.13-1.1,0.13-1.65c0.01-13.61,0.01-27.22,0.01-40.83c0-0.87,0-0.87,0.88-0.87c4.5,0,9.01,0.01,13.51-0.01
				c0.61,0,0.81,0.15,0.81,0.79c-0.02,13.88,0.04,27.76-0.04,41.63c-0.03,5.14-1.37,9.95-4.62,14.08c-2.09,2.65-4.7,4.63-7.72,6.11
				c-3.53,1.72-7.26,2.74-11.16,3.04c-4.39,0.34-8.56-0.73-12.58-2.37c-4.23-1.72-7.75-4.38-10.26-8.25
				c-1.75-2.7-2.83-5.66-3.21-8.84c-0.23-1.87-0.35-3.76-0.36-5.64C274.26,67.19,274.28,60.9,274.28,54.61z"/>
			<path class="st4" d="M269.16,33.08c-0.52,1.46-0.98,2.77-1.46,4.07c-4.75,13.13-9.51,26.26-14.27,39.39
				c-2.61,7.2-5.22,14.4-7.81,21.61c-0.16,0.45-0.4,0.58-0.86,0.58c-3.89-0.02-7.77-0.02-11.66,0c-0.5,0-0.72-0.18-0.88-0.64
				c-6.68-18.48-13.37-36.96-20.06-55.44c-1.06-2.92-2.11-5.83-3.16-8.75c-0.08-0.23-0.15-0.46-0.25-0.78
				c0.3-0.02,0.53-0.05,0.76-0.05c4.98,0,9.95,0.01,14.93-0.02c0.65,0,0.92,0.2,1.12,0.81c4.26,12.95,8.54,25.89,12.82,38.83
				c0.03,0.08,0.03,0.17,0.08,0.23c0.14,0.17,0.3,0.32,0.46,0.48c0.16-0.15,0.39-0.28,0.46-0.47c0.58-1.69,1.14-3.38,1.7-5.08
				c3.74-11.33,7.49-22.65,11.21-33.98c0.2-0.61,0.46-0.83,1.12-0.82c4.95,0.03,9.91,0.02,14.87,0.02
				C268.53,33.08,268.77,33.08,269.16,33.08z"/>
		</g>
	</g>
	<g class="st1">
		<linearGradient id="SVGID_1_" gradientUnits="userSpaceOnUse" x1="372.6984" y1="36.1977" x2="372.6984" y2="1.1083">
			<stop  offset="0" style="stop-color:#80C241"/>
			<stop  offset="0.9" style="stop-color:#B7D333"/>
		</linearGradient>
		<path class="st5" d="M397.81,21.96c-0.09-0.97-0.3-1.91-0.61-2.83c-0.21-0.94-0.57-1.83-0.98-2.7c-0.24-0.7-0.58-1.35-0.99-1.96
			c-0.29-0.72-0.71-1.37-1.18-1.98c-0.52-0.89-1.14-1.71-1.85-2.46c-0.72-0.96-1.57-1.8-2.48-2.57c-1.39-1.32-2.92-2.46-4.63-3.34
			c-2.83-1.7-5.92-2.65-9.2-2.92c-2.85-0.24-5.68,0.04-8.47,0.62c-2.26,0.47-4.46,1.16-6.49,2.31c-1.78,0.85-3.37,1.96-4.79,3.32
			c-0.91,0.77-1.73,1.62-2.43,2.59c-0.44,0.49-0.84,1-1.16,1.58c-0.38,0.46-0.68,0.95-0.94,1.49c-0.35,0.5-0.63,1.04-0.86,1.6
			c-0.45,0.83-0.85,1.68-1.12,2.58c-0.46,0.98-0.75,2.02-1.04,3.06c-0.26,0.8-0.43,1.63-0.6,2.46c-0.26,1.22-0.48,2.45-0.57,3.69
			c0.53-0.73,4.27-0.25,4.03,0.24c-0.06,0.38-1.34,3.74-1.39,3.91c-0.19,0.6-0.42,1.19-0.49,1.82c0,0.07,0.02,0.13,0.07,0.19
			c0.22-0.07,0.39,0.07,0.57,0.15c0.83,0.37,1.66,0.74,2.49,1.11c1.27,0.63,2.55,1.28,3.91,1.66c2.65,0.74,5.35,0.78,8.07,0.33
			c2.22-0.37,4.3-1.12,6.34-2.03c0.21-0.08,0.42-0.15,0.62-0.24c1.77-0.79,3.39-1.84,5.04-2.85c1.38-0.75,2.65-1.67,3.93-2.58
			c0.24-0.03,0.39-0.2,0.58-0.32c1.37-0.87,2.73-1.75,4.09-2.63c1.51-0.79,3-1.66,4.67-2.09c0.1-0.02,0.2-0.03,0.3-0.05
			c2.58-0.59,4.86-0.03,6.79,1.81c0.24,0.23,0.43,0.53,0.64,0.8c0.07-0.05,0.14-0.09,0.21-0.14
			C397.98,24.38,398.04,23.17,397.81,21.96z"/>
		<path class="st6" d="M340.67,47.54c-0.05,0.45,0.07,0.92-0.13,1.35c-2.64-2.61-4.76-5.57-5.89-9.14
			c-0.79-2.49-1.71-4.91-3.35-6.98c-1.32-1.67-2.9-3-5.01-3.57c0.02-0.31,0.22-0.13,0.35-0.13c2.57,0.18,5.11,0.51,7.53,1.48
			c0.74,0.3,1.42,0.71,2.1,1.12c0.34,0.21,0.69,0.41,1.04,0.62c0.81,1.22,1.34,2.57,1.76,3.96c0.95,3.17,1.48,6.41,1.66,9.71
			C340.77,46.48,340.76,47.02,340.67,47.54z"/>
		<path class="st7" d="M341.88,40.65c-0.42,1.12-0.51,2.31-0.72,3.48c-0.07,0.39-0.2,0.79-0.13,1.2c-0.19,0.51-0.19,1.05-0.25,1.58
			c-0.02,0.21,0.07,0.45-0.11,0.63c-0.13-3.86-0.68-7.66-1.78-11.37c-0.34-1.14-0.82-2.22-1.37-3.28c-0.09-0.18-0.31-0.34-0.2-0.6
			c2.03,1.17,3.59,2.82,4.86,4.77c0.13,0.2,0.28,0.4,0.42,0.6c0.04,0.05,0.09,0.1,0.08,0.16C342.43,38.77,342.28,39.74,341.88,40.65
			z"/>
		
			<linearGradient id="SVGID_00000008864040236370576530000000419959184340252562_" gradientUnits="userSpaceOnUse" x1="363.1379" y1="98.204" x2="363.1379" y2="11.368">
			<stop  offset="0" style="stop-color:#775C2C"/>
			<stop  offset="0.1322" style="stop-color:#7E7732"/>
			<stop  offset="0.3022" style="stop-color:#869439"/>
			<stop  offset="0.3994" style="stop-color:#899F3C"/>
			<stop  offset="1" style="stop-color:#758638"/>
		</linearGradient>
		<path style="fill-rule:evenodd;clip-rule:evenodd;fill:url(#SVGID_00000008864040236370576530000000419959184340252562_);" d="
			M340.27,98.2h7.85c0.11,0,0.19-0.09,0.19-0.19l-0.14-49.63c0,0-0.2-12.47,2.47-18.43c0,0,7.75-26.48,35.56-15.62
			c0,0-24.24-12.88-40.84,14.99c-0.07,0.31-5.29,8.54-5.29,20.91v47.78C340.08,98.12,340.16,98.2,340.27,98.2z"/>
	</g>
</g>
<g>
	<g>
		<path class="st9" d="M82.44,33.95c-0.01,0-4.61,0-4.62,0c-3.77,0-3.95,0.2-4.69,3.29c0,0.01-7.74,35.87-8.38,38.8
			c-0.71-2.9-9.45-38.71-9.45-38.72c-0.81-3.15-1.02-3.38-4.82-3.38c-0.01,0-7.83,0-7.84,0c-3.8,0-3.95,0.28-4.85,3.35
			c0,0.01-9.29,35.28-10.02,38.08c-0.6-2.83-8.11-38.08-8.11-38.08c-0.74-3.09-0.91-3.35-4.68-3.35c-0.01,0-4.94,0-4.94,0
			c-3.77,0-4.85,0.2-4,4c0,0.01,13.01,56.13,13.01,56.14c0.78,3.07,0.99,3.33,4.76,3.33c0,0,6.43,0,6.43,0c3.92,0,4.07-0.29,5-3.56
			c0-0.01,10.32-39.22,11.01-41.83c0.68,2.66,10.88,42.34,10.88,42.35c0.84,2.74,1.01,3.04,4.78,3.04c0,0,6.31,0,6.32,0
			c3.89,0,4.06-0.35,4.91-3.67c0-0.01,13.49-56.57,13.49-56.58C87.26,34.2,86.15,33.95,82.44,33.95L82.44,33.95z"/>
		<path class="st9" d="M135.63,33.95c-0.01,0-4.56,0-4.56,0c-3.77,0-3.95,0.17-3.95,4c0,0.01,0,34.32,0,36.74
			c-1.33-2.18-23.13-37.91-23.13-37.92c-1.66-2.63-2.04-2.82-5.79-2.82c-0.01,0-4.82,0-4.83,0c-3.74,0-4.01,0.23-4.01,4
			c0,0,0,55.42,0,55.44c0,3.82,0.23,4.03,3.98,4.03c0.01,0,4.53,0,4.53,0c3.89,0,4.03-0.26,4.03-4.04c0,0,0-33.47,0-35.86
			c1.33,2.16,22.79,37.16,22.8,37.17c1.74,2.7,1.94,2.73,5.69,2.73c0,0,5.22,0,5.23,0c3.83,0,4.03-0.17,4.03-4.07
			c0-0.01,0-55.39,0-55.4C139.66,34.11,139.46,33.95,135.63,33.95L135.63,33.95z"/>
		<path class="st9" d="M190.79,68.64c-1.68-2.76-4.04-4.96-7.01-6.54c-2.93-1.57-7.51-3.1-13.6-4.56
			c-5.98-1.43-9.78-2.81-11.29-4.09c-1.14-0.97-1.69-2.1-1.69-3.45c0-1.48,0.59-2.63,1.79-3.51c1.97-1.44,4.74-2.18,8.26-2.18
			c3.39,0,5.96,0.68,7.63,2.01c1.09,0.87,1.93,2.13,2.53,3.76c0.98,2.78,0.98,3.28,4.78,3.14c0.01,0,5.38-0.2,5.41-0.2
			c3.74-0.16,4.27-0.63,3.65-4.03c-0.79-4.33-2.79-7.94-5.99-10.76c-4-3.52-10.01-5.3-17.87-5.3c-4.8,0-8.97,0.75-12.38,2.22
			c-3.44,1.48-6.11,3.67-7.94,6.51c-1.83,2.84-2.76,5.93-2.76,9.2c0,5.07,1.97,9.42,5.85,12.94c2.74,2.49,7.55,4.61,14.28,6.3
			c5.17,1.3,8.52,2.22,9.96,2.73c2.05,0.73,3.49,1.6,4.29,2.56c0.8,0.96,1.18,2.1,1.18,3.47c0,2.17-0.95,4.03-2.9,5.67
			c-1.94,1.64-4.9,2.47-8.8,2.47c-3.67,0-6.61-0.94-8.76-2.78c-1.57-1.36-2.77-3.31-3.58-5.83c-0.82-2.98-0.97-3.36-4.77-3
			c-0.03,0-5.14,0.49-5.14,0.49c-3.75,0.33-4.16,0.65-3.49,3.66c0,0.01,1.96,8.79,7.25,13.56c4.21,3.8,10.44,5.63,18.36,5.63
			c5.42,0,10.02-0.78,13.67-2.33c3.68-1.56,6.57-3.97,8.58-7.18c2.01-3.2,3.03-6.68,3.03-10.35
			C193.33,74.84,192.47,71.39,190.79,68.64L190.79,68.64z"/>
		<polygon class="st3" points="106.62,97.42 106.62,75.59 120.43,97.42 106.62,97.42 		"/>
	</g>
	<g>
		<g>
			<path class="st9" d="M465.52,41.24c0.1-0.21,0.15-0.33,0.22-0.43c2.34-3.41,5.7-5.3,9.58-6.41c2.83-0.81,5.73-1.11,8.65-0.93
				c5.64,0.34,10.87,1.92,15.34,5.5c3.73,2.99,6.04,6.84,6.7,11.61c0.14,0.99,0.23,2,0.23,3c0.01,14.7,0.01,29.41,0.01,44.11
				c0,0.92,0,0.92-0.9,0.92c-4.05,0-8.1,0-12.15,0c-0.89,0-0.89,0-0.89-0.92c-0.01-5.16,0-10.32-0.02-15.48
				c-0.03-8.45-0.02-16.9-0.12-25.35c-0.05-4.65-2.92-8.78-8.12-9.52c-5.24-0.75-10.27,2.38-11.34,8.11
				c-0.09,0.5-0.13,1.02-0.13,1.53c-0.01,13.57-0.01,27.14-0.01,40.72c0,0.92,0,0.92-0.9,0.92c-4.13,0-8.27,0-12.4,0
				c-0.89,0-0.89,0-0.89-0.92c0-13.53,0-27.06,0-40.59c0-4.8-3.48-8.89-8.2-9.7c-5.76-0.98-10.59,2.61-11.31,8.18
				c-0.04,0.3-0.1,0.61-0.1,0.92c-0.04,6.39-0.09,12.78-0.11,19.18c-0.02,7.38-0.02,14.76-0.01,22.15c0,0.61-0.15,0.81-0.79,0.81
				c-4.13-0.03-8.27-0.03-12.4,0c-0.64,0.01-0.79-0.2-0.78-0.81c0.02-15.09-0.05-30.19,0.05-45.28c0.03-5.04,2.15-9.32,5.9-12.72
				c3.74-3.39,8.21-5.26,13.16-5.97c1.98-0.28,4.01-0.44,6.01-0.35c4.49,0.19,8.74,1.29,12.35,4.13c1.07,0.84,1.92,1.96,2.87,2.95
				C465.14,40.7,465.25,40.88,465.52,41.24z"/>
			<path class="st9" d="M401.25,93.31c-0.19,0.27-0.34,0.56-0.56,0.79c-2.47,2.54-5.43,4.22-8.97,4.63
				c-4.31,0.51-8.47-0.22-12.4-2.11c-5.21-2.5-8.88-6.56-11.49-11.63c-1.91-3.7-3.12-7.64-3.6-11.77c-0.28-2.4-0.54-4.83-0.47-7.24
				c0.26-8.94,2.73-17.16,8.6-24.11c3.78-4.48,8.48-7.48,14.34-8.47c2.42-0.41,4.86-0.32,7.3-0.06c2.69,0.29,5.29,0.92,7.76,2.05
				c4.89,2.24,8.29,5.96,10.56,10.77c1.47,3.11,2.34,6.39,2.87,9.77c0.5,3.21,0.65,6.45,0.6,9.69c-0.04,2.36-0.1,4.72-0.1,7.08
				c0,2.48,0.1,4.97,0.09,7.46c-0.02,5.98-0.08,11.96-0.1,17.94c0,0.52-0.18,0.66-0.68,0.66c-4.26-0.02-8.51-0.02-12.77,0
				c-0.53,0-0.67-0.18-0.66-0.68c0.03-1.29,0.02-2.59,0.02-3.89c0-0.24-0.03-0.47-0.05-0.71C401.45,93.44,401.35,93.38,401.25,93.31
				z M402.04,67.63c-0.06-1.23-0.05-2.47-0.19-3.69c-0.29-2.46-0.54-4.93-1.02-7.35c-0.5-2.53-1.47-4.91-3.11-6.97
				c-2.4-3.03-6.44-4-9.4-3.14c-2.23,0.65-3.82,2.22-5.1,4.08c-2.97,4.29-4.12,9.16-4.41,14.28c-0.14,2.54,0.01,5.09,0.48,7.6
				c0.59,3.14,1.59,6.12,3.38,8.79c1.14,1.7,2.52,3.17,4.44,3.98c2.74,1.16,5.41,0.69,7.94-0.65c2.78-1.47,4.4-3.94,5.45-6.82
				C401.69,74.48,402.07,71.09,402.04,67.63z"/>
			<path class="st9" d="M274.28,54.61c0-6.95,0-13.9,0-20.85c0-0.81,0-0.81,0.82-0.81c4.52,0,9.05,0.01,13.57-0.01
				c0.62,0,0.8,0.17,0.8,0.8c-0.02,13.53,0.03,27.06-0.04,40.59c-0.02,4.13,2.48,8.36,7.38,9.81c4.67,1.38,11.12-1.74,12.12-7.82
				c0.09-0.54,0.13-1.1,0.13-1.65c0.01-13.61,0.01-27.22,0.01-40.83c0-0.87,0-0.87,0.88-0.87c4.5,0,9.01,0.01,13.51-0.01
				c0.61,0,0.81,0.15,0.81,0.79c-0.02,13.88,0.04,27.76-0.04,41.63c-0.03,5.14-1.37,9.95-4.62,14.08c-2.09,2.65-4.7,4.63-7.72,6.11
				c-3.53,1.72-7.26,2.74-11.16,3.04c-4.39,0.34-8.56-0.73-12.58-2.37c-4.23-1.72-7.75-4.38-10.26-8.25
				c-1.75-2.7-2.83-5.66-3.21-8.84c-0.23-1.87-0.35-3.76-0.36-5.64C274.26,67.19,274.28,60.9,274.28,54.61z"/>
			<path class="st9" d="M269.16,33.08c-0.52,1.46-0.98,2.77-1.46,4.07c-4.75,13.13-9.51,26.26-14.27,39.39
				c-2.61,7.2-5.22,14.4-7.81,21.61c-0.16,0.45-0.4,0.58-0.86,0.58c-3.89-0.02-7.77-0.02-11.66,0c-0.5,0-0.72-0.18-0.88-0.64
				c-6.68-18.48-13.37-36.96-20.06-55.44c-1.06-2.92-2.11-5.83-3.16-8.75c-0.08-0.23-0.15-0.46-0.25-0.78
				c0.3-0.02,0.53-0.05,0.76-0.05c4.98,0,9.95,0.01,14.93-0.02c0.65,0,0.92,0.2,1.12,0.81c4.26,12.95,8.54,25.89,12.82,38.83
				c0.03,0.08,0.03,0.17,0.08,0.23c0.14,0.17,0.3,0.32,0.46,0.48c0.16-0.15,0.39-0.28,0.46-0.47c0.58-1.69,1.14-3.38,1.7-5.08
				c3.74-11.33,7.49-22.65,11.21-33.98c0.2-0.61,0.46-0.83,1.12-0.82c4.95,0.03,9.91,0.02,14.87,0.02
				C268.53,33.08,268.77,33.08,269.16,33.08z"/>
		</g>
	</g>
	<g>
		
			<linearGradient id="SVGID_00000004537318490517038770000012053235952095014306_" gradientUnits="userSpaceOnUse" x1="372.6984" y1="36.1977" x2="372.6984" y2="1.1083">
			<stop  offset="0" style="stop-color:#80C241"/>
			<stop  offset="0.9" style="stop-color:#B7D333"/>
		</linearGradient>
		<path style="fill-rule:evenodd;clip-rule:evenodd;fill:url(#SVGID_00000004537318490517038770000012053235952095014306_);" d="
			M397.81,21.96c-0.09-0.97-0.3-1.91-0.61-2.83c-0.21-0.94-0.57-1.83-0.98-2.7c-0.24-0.7-0.58-1.35-0.99-1.96
			c-0.29-0.72-0.71-1.37-1.18-1.98c-0.52-0.89-1.14-1.71-1.85-2.46c-0.72-0.96-1.57-1.8-2.48-2.57c-1.39-1.32-2.92-2.46-4.63-3.34
			c-2.83-1.7-5.92-2.65-9.2-2.92c-2.85-0.24-5.68,0.04-8.47,0.62c-2.26,0.47-4.46,1.16-6.49,2.31c-1.78,0.85-3.37,1.96-4.79,3.32
			c-0.91,0.77-1.73,1.62-2.43,2.59c-0.44,0.49-0.84,1-1.16,1.58c-0.38,0.46-0.68,0.95-0.94,1.49c-0.35,0.5-0.63,1.04-0.86,1.6
			c-0.45,0.83-0.85,1.68-1.12,2.58c-0.46,0.98-0.75,2.02-1.04,3.06c-0.26,0.8-0.43,1.63-0.6,2.46c-0.26,1.22-0.48,2.45-0.57,3.69
			c0.53-0.73,4.27-0.25,4.03,0.24c-0.06,0.38-1.34,3.74-1.39,3.91c-0.19,0.6-0.42,1.19-0.49,1.82c0,0.07,0.02,0.13,0.07,0.19
			c0.22-0.07,0.39,0.07,0.57,0.15c0.83,0.37,1.66,0.74,2.49,1.11c1.27,0.63,2.55,1.28,3.91,1.66c2.65,0.74,5.35,0.78,8.07,0.33
			c2.22-0.37,4.3-1.12,6.34-2.03c0.21-0.08,0.42-0.15,0.62-0.24c1.77-0.79,3.39-1.84,5.04-2.85c1.38-0.75,2.65-1.67,3.93-2.58
			c0.24-0.03,0.39-0.2,0.58-0.32c1.37-0.87,2.73-1.75,4.09-2.63c1.51-0.79,3-1.66,4.67-2.09c0.1-0.02,0.2-0.03,0.3-0.05
			c2.58-0.59,4.86-0.03,6.79,1.81c0.24,0.23,0.43,0.53,0.64,0.8c0.07-0.05,0.14-0.09,0.21-0.14
			C397.98,24.38,398.04,23.17,397.81,21.96z"/>
		<path class="st6" d="M340.67,47.54c-0.05,0.45,0.07,0.92-0.13,1.35c-2.64-2.61-4.76-5.57-5.89-9.14
			c-0.79-2.49-1.71-4.91-3.35-6.98c-1.32-1.67-2.9-3-5.01-3.57c0.02-0.31,0.22-0.13,0.35-0.13c2.57,0.18,5.11,0.51,7.53,1.48
			c0.74,0.3,1.42,0.71,2.1,1.12c0.34,0.21,0.69,0.41,1.04,0.62c0.81,1.22,1.34,2.57,1.76,3.96c0.95,3.17,1.48,6.41,1.66,9.71
			C340.77,46.48,340.76,47.02,340.67,47.54z"/>
		<path class="st7" d="M341.88,40.65c-0.42,1.12-0.51,2.31-0.72,3.48c-0.07,0.39-0.2,0.79-0.13,1.2c-0.19,0.51-0.19,1.05-0.25,1.58
			c-0.02,0.21,0.07,0.45-0.11,0.63c-0.13-3.86-0.68-7.66-1.78-11.37c-0.34-1.14-0.82-2.22-1.37-3.28c-0.09-0.18-0.31-0.34-0.2-0.6
			c2.03,1.17,3.59,2.82,4.86,4.77c0.13,0.2,0.28,0.4,0.42,0.6c0.04,0.05,0.09,0.1,0.08,0.16C342.43,38.77,342.28,39.74,341.88,40.65
			z"/>
		
			<linearGradient id="SVGID_00000001652635575775401360000007881813313702606257_" gradientUnits="userSpaceOnUse" x1="363.1379" y1="98.204" x2="363.1379" y2="11.368">
			<stop  offset="0" style="stop-color:#775C2C"/>
			<stop  offset="0.1322" style="stop-color:#7E7732"/>
			<stop  offset="0.3022" style="stop-color:#869439"/>
			<stop  offset="0.3994" style="stop-color:#899F3C"/>
			<stop  offset="1" style="stop-color:#758638"/>
		</linearGradient>
		<path style="fill-rule:evenodd;clip-rule:evenodd;fill:url(#SVGID_00000001652635575775401360000007881813313702606257_);" d="
			M340.27,98.2h7.85c0.11,0,0.19-0.09,0.19-0.19l-0.14-49.63c0,0-0.2-12.47,2.47-18.43c0,0,7.75-26.48,35.56-15.62
			c0,0-24.24-12.88-40.84,14.99c-0.07,0.31-5.29,8.54-5.29,20.91v47.78C340.08,98.12,340.16,98.2,340.27,98.2z"/>
	</g>
</g>
</svg>
