<svg width="140" height="24" viewBox="0 0 140 24" fill="none" xmlns="http://www.w3.org/2000/svg">
<g id="WH_Logo">
<path id="Fill 1" fill-rule="evenodd" clip-rule="evenodd" d="M44.5602 20.032C41.877 20.032 39.7734 17.83 39.7734 15.016V14.9512C39.7734 12.082 41.7594 10 44.4954 10C47.1798 10 49.2822 12.2032 49.2822 15.016V15.082C49.2822 17.9512 47.2974 20.032 44.5602 20.032ZM35.1836 15.0164V15.0824C35.1836 20.0828 39.2732 24.0008 44.4956 24.0008C49.7528 24.0008 53.8712 20.0552 53.8712 15.0164V14.9516C53.8712 9.8672 49.8692 6.0332 44.5604 6.0332C39.3032 6.0332 35.1836 9.9788 35.1836 15.0164Z" fill="#1F243D"/>
<path id="Fill 4" fill-rule="evenodd" clip-rule="evenodd" d="M61.8071 10.5524V6.35955H57.1523V23.606H61.8071V17.2784C61.8071 13.1768 63.7643 10.9184 67.3175 10.9184H67.4135V6.02715C64.9247 5.95875 63.2267 7.16955 62.1239 9.80115L61.8071 10.5524Z" fill="#1F243D"/>
<path id="Fill 6" fill-rule="evenodd" clip-rule="evenodd" d="M80.9311 6.36L74.8579 13.0128V0H70.2031V23.6064H74.8579V18.3612L76.7851 16.3248L76.8979 16.5024L81.4399 23.6064H86.7535L79.9279 13.0944L86.4391 6.36H80.9311Z" fill="#1F243D"/>
<path id="Fill 8" fill-rule="evenodd" clip-rule="evenodd" d="M93.9046 8.7888L93.6118 9.1668V0H88.957V23.6064H93.6118V13.9668C93.6118 11.5908 94.807 10.2288 96.8914 10.2288C98.941 10.2288 100.071 11.556 100.071 13.9668V23.6064H104.727V12.3924C104.727 8.4096 102.558 6.0324 98.9242 6.0324C96.391 6.0324 94.9654 7.4256 93.9046 8.7888Z" fill="#1F243D"/>
<path id="Fill 10" fill-rule="evenodd" clip-rule="evenodd" d="M114.398 20.8201C112.646 20.8201 111.514 19.9189 111.514 18.5245V18.4597C111.514 16.8145 112.829 15.8701 115.121 15.8701C116.279 15.8701 117.433 16.1077 118.369 16.5397L118.465 16.5841V17.5741C118.465 19.4857 116.792 20.8201 114.398 20.8201ZM108.569 7.50086L109.716 11.0013C111.3 10.4289 112.611 10.0989 114.466 10.0989C117.003 10.0989 118.399 11.2989 118.399 13.4757V14.0001L118.182 13.9257C117.153 13.5741 115.842 13.2129 113.94 13.2129C109.543 13.2129 107.023 15.1977 107.023 18.6561V18.7221C107.023 22.3233 109.969 23.9349 112.89 23.9349C115.062 23.9349 116.76 23.2233 118.081 21.7593L118.367 21.4437V23.6073H122.857V13.5741C122.857 11.1609 122.235 9.31406 121.005 8.08286C119.731 6.80966 117.773 6.16406 115.187 6.16406C112.282 6.16406 110.424 6.69686 108.569 7.50086Z" fill="#1F243D"/>
<path id="Fill 12" fill-rule="evenodd" clip-rule="evenodd" d="M131.055 23.6064V0H126.4V23.6064H131.055Z" fill="#1F243D"/>
<path id="Fill 14" fill-rule="evenodd" clip-rule="evenodd" d="M139.645 23.6064V0H134.99V23.6064H139.645Z" fill="#1F243D"/>
<path id="Fill 16" fill-rule="evenodd" clip-rule="evenodd" d="M25.6268 16.668L22.622 7.098L20.2148 14.3472L23.4632 23.76H27.7784L35.834 0H30.7292L25.6268 16.668Z" fill="#217CF5"/>
<path id="Fill 19" fill-rule="evenodd" clip-rule="evenodd" d="M13.2192 6.8952L12.396 9.6936L10.3428 16.668L5.244 0H0L8.0556 23.76H12.372L14.6808 16.9188L15.6336 14.0988L17.8512 7.53L20.394 0H15.2484L13.2192 6.8952Z" fill="#1F243D"/>
</g>
</svg>
